<svg width="16" height="16" viewBox="0 0 16 16" fill="none" xmlns="http://www.w3.org/2000/svg">
<g clip-path="url(#clip0_1703_85807)">
<path d="M8.00065 1.66669L9.89595 6.06288L14.6673 6.50492L11.0673 9.66396L12.1209 14.3334L8.00065 11.8895L3.88042 14.3334L4.93398 9.66396L1.33398 6.50492L6.10535 6.06288L8.00065 1.66669Z" fill="#0867D6"/>
<path d="M8.00065 1.66669L9.89595 6.06288L14.6673 6.50492L11.0673 9.66396L12.1209 14.3334L8.00065 11.8895L3.88042 14.3334L4.93398 9.66396L1.33398 6.50492L6.10535 6.06288L8.00065 1.66669Z" fill="#EEEE36"/>
<path d="M8.00065 1.66669L9.89595 6.06288L14.6673 6.50492L11.0673 9.66396L12.1209 14.3334L8.00065 11.8895L3.88042 14.3334L4.93398 9.66396L1.33398 6.50492L6.10535 6.06288L8.00065 1.66669Z" fill="#F1DA09"/>
<path d="M8.00065 1.66669L9.89595 6.06288L14.6673 6.50492L11.0673 9.66396L12.1209 14.3334L8.00065 11.8895L3.88042 14.3334L4.93398 9.66396L1.33398 6.50492L6.10535 6.06288L8.00065 1.66669Z" stroke="#0867D6" stroke-width="2" stroke-linejoin="round"/>
<path d="M8.00065 1.66669L9.89595 6.06288L14.6673 6.50492L11.0673 9.66396L12.1209 14.3334L8.00065 11.8895L3.88042 14.3334L4.93398 9.66396L1.33398 6.50492L6.10535 6.06288L8.00065 1.66669Z" stroke="#EEEE36" stroke-width="2" stroke-linejoin="round"/>
<path d="M8.00065 1.66669L9.89595 6.06288L14.6673 6.50492L11.0673 9.66396L12.1209 14.3334L8.00065 11.8895L3.88042 14.3334L4.93398 9.66396L1.33398 6.50492L6.10535 6.06288L8.00065 1.66669Z" stroke="#F1DA09" stroke-width="2" stroke-linejoin="round"/>
</g>
<defs>
<clipPath id="clip0_1703_85807">
<rect width="16" height="16" fill="white"/>
</clipPath>
</defs>
</svg>
